<svg width="70" height="79" viewBox="0 0 70 79" fill="none" xmlns="http://www.w3.org/2000/svg">
<path fill-rule="evenodd" clip-rule="evenodd" d="M60.4421 78.433H1.463e-07V48.4805H60.4421V78.433ZM3.37494 75.3451H57.0672V51.8771H3.37494V75.3451Z" fill="white"/>
<path fill-rule="evenodd" clip-rule="evenodd" d="M58.9155 63.6113H1.54154C1.54154 63.6113 0.314288 76.8892 1.54154 76.8892C2.76879 76.8892 58.6087 76.8892 58.6087 76.8892V63.6113H58.9155Z" fill="white"/>
<path d="M55.2271 46.627H5.52344V49.4061H55.2271V46.627Z" fill="white"/>
<path fill-rule="evenodd" clip-rule="evenodd" d="M33.7535 40.4513C32.5262 40.4513 31.6058 40.1425 30.6853 39.2161C28.8445 37.3634 28.8445 34.5843 30.6853 33.0404L63.5143 0L69.6506 6.17577L36.8216 39.2161C36.208 40.1425 34.9807 40.4513 33.7535 40.4513ZM63.5143 4.01425L32.833 34.8931C32.2194 35.5107 32.2194 36.4371 32.833 37.0546C33.4467 37.6722 34.3671 37.6722 34.9807 37.0546L65.662 6.17577L63.5143 4.01425Z" fill="white"/>
</svg>
