<svg width="66" height="67" viewBox="0 0 66 67" fill="none" xmlns="http://www.w3.org/2000/svg">
<path fill-rule="evenodd" clip-rule="evenodd" d="M32.829 3.45429C49.0901 3.45429 62.283 16.7322 62.283 33.098C62.283 49.4638 49.0901 62.7417 32.829 62.7417C16.5679 62.7417 3.37494 49.4638 3.37494 33.098C3.37494 16.7322 16.5679 3.45429 32.829 3.45429ZM32.829 0.0576166C14.727 0.0576166 -1.87264e-05 14.8795 -1.87264e-05 33.098C-1.87264e-05 51.3165 14.727 66.1384 32.829 66.1384C50.9309 66.1384 65.658 51.3165 65.658 33.098C65.658 14.8795 50.9309 0.0576166 32.829 0.0576166Z" fill="white"/>
<path fill-rule="evenodd" clip-rule="evenodd" d="M14.1211 41.7428L16.2688 39.2725C20.871 43.5955 27.0072 45.757 33.1435 45.757C38.9729 45.757 44.4955 43.9043 49.0977 40.1988L51.2455 42.9779C46.0296 46.9922 39.8934 49.4625 33.1435 49.4625C26.0868 49.4625 19.3369 46.6834 14.1211 41.7428Z" fill="white"/>
<path fill-rule="evenodd" clip-rule="evenodd" d="M28.844 25.0687C28.844 26.9215 27.3099 28.7742 25.1622 28.7742C23.3214 28.7742 21.4805 27.2303 21.4805 25.0687C21.4805 23.216 23.0146 21.3633 25.1622 21.3633C27.0031 21.3633 28.844 22.9072 28.844 25.0687Z" fill="white"/>
<path fill-rule="evenodd" clip-rule="evenodd" d="M44.1838 25.0687C44.1838 26.9215 42.6498 28.7742 40.5021 28.7742C38.3544 28.7742 36.8203 27.2303 36.8203 25.0687C36.8203 23.216 38.3544 21.3633 40.5021 21.3633C42.6498 21.3633 44.1838 22.9072 44.1838 25.0687Z" fill="white"/>
</svg>
