<svg width="59" height="78" viewBox="0 0 59 78" fill="none" xmlns="http://www.w3.org/2000/svg">
<path fill-rule="evenodd" clip-rule="evenodd" d="M46.0195 64.0808V60.6841C51.2354 60.6841 55.5307 56.3611 55.5307 51.1117C55.5307 45.8623 51.2354 41.5393 46.0195 41.5393V38.1426C53.0762 38.1426 58.5989 44.0096 58.5989 50.8029C58.9057 58.5226 53.0762 64.0808 46.0195 64.0808Z" fill="white"/>
<path fill-rule="evenodd" clip-rule="evenodd" d="M27.2964 77.6673H20.8533C9.50125 77.6673 0.29688 68.7124 0.29688 57.9048V30.7314H48.1597V57.9048C47.8529 68.7124 38.6485 77.6673 27.2964 77.6673ZM3.36501 33.8193V57.9048C3.36501 66.8597 11.0353 74.2706 20.8533 74.2706H27.2964C36.8076 74.2706 44.7847 66.8597 44.7847 57.9048V33.8193H3.36501Z" fill="white"/>
<path fill-rule="evenodd" clip-rule="evenodd" d="M23.3149 65.9329C20.8604 65.9329 19.0195 64.0802 19.0195 61.6099V0.469727H27.6103V61.3011C27.6103 63.7714 25.7694 65.9329 23.3149 65.9329ZM21.7809 3.24882V61.6099C21.7809 62.5362 22.3945 63.1538 23.3149 63.1538C24.2354 63.1538 24.849 62.5362 24.849 61.6099V3.24882H21.7809Z" fill="white"/>
<path fill-rule="evenodd" clip-rule="evenodd" d="M46.0219 53.5826C35.0479 53.5826 29.5609 50.1859 25.2932 47.4068C22.2449 45.2453 19.5014 43.7014 15.5386 43.7014C6.39356 43.7014 3.65005 51.4211 3.34522 51.7299L0.296884 50.4947C0.296884 50.4947 3.95489 40.3047 15.5386 40.3047C20.4159 40.3047 23.7691 42.1574 27.1222 44.3189C31.0851 47.4068 35.9624 50.4947 46.0219 50.4947V53.5826Z" fill="white"/>
<path fill-rule="evenodd" clip-rule="evenodd" d="M29.7512 60.6835C29.7512 64.0801 26.9899 66.8592 23.6149 66.8592C20.24 66.8592 17.1719 64.0801 17.1719 60.6835C17.1719 57.2868 19.9332 54.5077 23.6149 54.5077C26.6831 54.1989 29.7512 57.2868 29.7512 60.6835Z" fill="white"/>
</svg>
