<svg width="22" height="22" viewBox="0 0 22 22" fill="none" xmlns="http://www.w3.org/2000/svg">
<path d="M20.9034 3.84745C21.1728 3.84745 21.3911 3.629 21.3911 3.35976C21.3911 3.09051 21.1728 2.87207 20.9034 2.87207H18.1092C17.8398 2.87207 17.6215 3.09051 17.6215 3.35976V6.01157C17.6215 6.28081 17.8398 6.49926 18.1092 6.49926C18.3786 6.49926 18.5969 6.28081 18.5969 6.01157V4.47089C20.1645 6.28877 21.022 8.57862 21.022 11.0002C21.022 13.6752 19.9785 16.1918 18.0835 18.0866C16.1888 19.9815 13.672 21.0248 10.9967 21.0248C9.74535 21.0248 8.52559 20.7975 7.37155 20.3492C7.04419 20.2215 6.72095 20.0758 6.41089 19.9155C6.1718 19.7926 5.87745 19.8859 5.75378 20.125C5.6301 20.3641 5.72377 20.6584 5.96318 20.7823C6.30357 20.9582 6.6584 21.1182 7.01799 21.2582C8.28538 21.7507 9.62406 22.0002 10.9967 22.0002C13.9325 22.0002 16.6943 20.8553 18.7731 18.7763C20.8524 16.6972 21.9974 13.9356 21.9974 11.0002C21.9974 8.34829 21.0602 5.84021 19.3469 3.84745H20.9034Z" fill="white"/>
<path d="M3.78661 15.2809C3.5172 15.2809 3.2989 15.4994 3.2989 15.7686V17.4116C1.79537 15.6129 0.975429 13.369 0.975429 11C0.975429 8.32469 2.01897 5.80814 3.91394 3.91358C5.8086 2.0187 8.32544 0.975378 11.0007 0.975378C12.3472 0.975378 13.6527 1.23764 14.881 1.75454C15.1293 1.85868 15.4152 1.74216 15.5197 1.49418C15.6243 1.24589 15.5076 0.95982 15.2595 0.855361C13.9107 0.28766 12.4778 -4.06408e-09 11.0007 -4.06408e-09C8.06491 -4.06408e-09 5.3031 1.14493 3.22428 3.22396C1.14514 5.30267 2.03214e-09 8.06433 2.03214e-09 11C2.03214e-09 13.6246 0.917779 16.1087 2.59795 18.0918H1.16515C0.895731 18.0918 0.677434 18.3102 0.677434 18.5795C0.677434 18.8487 0.895731 19.0672 1.16515 19.0672H3.78661C4.05603 19.0672 4.27433 18.8487 4.27433 18.5795V15.7686C4.27433 15.4994 4.05603 15.2809 3.78661 15.2809Z" fill="white"/>
<path d="M10.5134 13.0795V17.7056C10.5134 17.9748 10.7317 18.1933 11.0011 18.1933C11.2706 18.1933 11.4889 17.9748 11.4889 17.7056V13.0795C12.3 12.9946 14.446 12.6279 15.6244 11.0849C17.066 9.19799 16.4284 6.37505 16.4006 6.25598C16.3474 6.02865 16.1401 5.86863 15.9077 5.87942C15.7853 5.88387 12.894 6.0115 11.4527 7.89876C11.2707 8.13693 11.1223 8.3901 11.0011 8.65077C10.88 8.3901 10.7316 8.13693 10.5496 7.89876C9.10823 6.0115 6.21703 5.88387 6.09463 5.87942C5.86268 5.86958 5.65486 6.02865 5.60167 6.25598C5.57389 6.37505 4.9363 9.19799 6.37786 11.0849C7.55632 12.6279 9.70224 12.9946 10.5134 13.0795ZM12.2277 8.49059C13.1001 7.34884 14.7482 6.99926 15.5223 6.89576C15.6273 7.66888 15.7251 9.34627 14.8494 10.4931C14.1941 11.3509 13.1011 11.7614 12.2695 11.9565L13.926 9.78792C14.0895 9.57392 14.0486 9.26784 13.8346 9.10433C13.621 8.94177 13.3146 8.98209 13.1509 9.19609L11.4946 11.3646C11.464 10.5109 11.5726 9.34841 12.2277 8.49059ZM6.48089 6.89608C7.25565 6.99958 8.90264 7.34916 9.77455 8.49059C10.4298 9.34851 10.5383 10.5111 10.5078 11.3647L8.85136 9.19609C8.68799 8.98177 8.3819 8.94113 8.16773 9.10433C7.95372 9.26784 7.91276 9.57392 8.07628 9.78792L9.73454 11.9589C8.90398 11.765 7.81139 11.355 7.15293 10.4931C6.28101 9.35135 6.37722 7.67047 6.48089 6.89608Z" fill="white"/>
</svg>
