<svg width="30" height="18" viewBox="0 0 30 18" fill="none" xmlns="http://www.w3.org/2000/svg">
<path fill-rule="evenodd" clip-rule="evenodd" d="M26.6047 0.670941H6.85166C6.43091 0.668772 6.01388 0.749771 5.62454 0.909284C5.23519 1.0688 4.88121 1.30368 4.58292 1.60043C4.28464 1.89718 4.04794 2.24996 3.88643 2.63847C3.72492 3.02699 3.64178 3.4436 3.64178 3.86436V6.0372H1.88047C1.4439 6.0372 1.02521 6.21062 0.716504 6.51932C0.407802 6.82803 0.234375 7.24671 0.234375 7.68328V10.2676C0.234375 10.7042 0.407802 11.1229 0.716504 11.4316C1.02521 11.7403 1.4439 11.9137 1.88047 11.9137H3.70763V14.0866C3.70763 14.9335 4.04407 15.7458 4.64296 16.3447C5.24184 16.9435 6.0541 17.28 6.90104 17.28H26.6541C27.4932 17.2552 28.2911 16.9108 28.8847 16.3172C29.4783 15.7236 29.8227 14.9257 29.8475 14.0866V3.86436C29.8222 3.01692 29.4709 2.21193 28.8668 1.61706C28.2628 1.02218 27.4525 0.683279 26.6047 0.670941ZM1.91339 10.5475L1.71586 10.3335V7.73267L1.91339 7.51868H3.74055V10.4981L1.91339 10.5475ZM26.6047 15.9137H6.85166C6.39459 15.9094 5.95745 15.726 5.63424 15.4028C5.31103 15.0795 5.12756 14.6424 5.12326 14.1853V11.9631V6.0372V3.86436C5.12276 3.41987 5.29352 2.99227 5.60006 2.6704C5.9066 2.34853 6.32537 2.15713 6.76935 2.13596H26.5224C26.9808 2.13596 27.4205 2.31806 27.7446 2.6422C28.0687 2.96633 28.2508 3.40596 28.2508 3.86436V14.1195C28.2516 14.5657 28.0813 14.9951 27.7752 15.3197C27.469 15.6442 27.0502 15.8391 26.6047 15.8644V15.9137Z" fill="white"/>
<path fill-rule="evenodd" clip-rule="evenodd" d="M9.96361 13.4609C10.4264 13.4609 10.8702 13.277 11.1974 12.9498C11.5246 12.6226 11.7085 12.1788 11.7085 11.716V6.28392C11.7085 5.82115 11.5246 5.37734 11.1974 5.05012C10.8702 4.7229 10.4264 4.53906 9.96361 4.53906C9.50084 4.53906 9.05703 4.7229 8.72981 5.05012C8.40258 5.37734 8.21875 5.82115 8.21875 6.28392V11.6996C8.21875 12.1623 8.40258 12.6061 8.72981 12.9334C9.05703 13.2606 9.50084 13.4444 9.96361 13.4444" fill="white"/>
<path fill-rule="evenodd" clip-rule="evenodd" d="M16.7292 13.4609C17.192 13.4609 17.6358 13.277 17.963 12.9498C18.2903 12.6226 18.4741 12.1788 18.4741 11.716V6.28392C18.4741 5.82115 18.2903 5.37734 17.963 5.05012C17.6358 4.7229 17.192 4.53906 16.7292 4.53906C16.2665 4.53906 15.8227 4.7229 15.4954 5.05012C15.1682 5.37734 14.9844 5.82115 14.9844 6.28392V11.6996C14.9844 12.1623 15.1682 12.6061 15.4954 12.9334C15.8227 13.2606 16.2665 13.4444 16.7292 13.4444" fill="white"/>
<path fill-rule="evenodd" clip-rule="evenodd" d="M23.464 13.4614C23.9283 13.4614 24.3738 13.2781 24.7037 12.9513C25.0335 12.6246 25.221 12.1808 25.2253 11.7165V6.28442C25.2491 6.03992 25.2214 5.79317 25.1441 5.56002C25.0668 5.32686 24.9415 5.11245 24.7764 4.93056C24.6113 4.74867 24.41 4.60333 24.1854 4.50387C23.9608 4.40441 23.7179 4.35303 23.4723 4.35303C23.2266 4.35303 22.9837 4.40441 22.7591 4.50387C22.5345 4.60333 22.3332 4.74867 22.1681 4.93056C22.003 5.11245 21.8778 5.32686 21.8004 5.56002C21.7231 5.79317 21.6954 6.03992 21.7192 6.28442V11.7001C21.7192 12.1628 21.903 12.6066 22.2302 12.9339C22.5574 13.2611 23.0013 13.4449 23.464 13.4449" fill="white"/>
</svg>
