<svg width="26" height="20" viewBox="0 0 26 20" fill="none" xmlns="http://www.w3.org/2000/svg">
<path d="M12.9977 20C12.9067 20 12.8154 19.9767 12.7334 19.9295C9.63645 18.1538 5.61737 15.0412 4.05803 10.2941C2.64842 6.00152 3.09783 2.63455 5.29095 1.05469C6.50086 0.183377 8.0057 0 8.2517 0C10.002 0 11.6711 0.555013 13.0016 1.57172C14.3316 0.555013 15.996 0 17.7378 0C17.9841 0 19.4895 0.183377 20.6999 1.05469C22.8949 2.63563 23.3448 6.00423 21.9349 10.2973C20.3759 15.0434 16.3581 18.1548 13.2619 19.9295C13.1799 19.9767 13.0887 20 12.9977 20ZM8.2517 1.11111C8.24667 1.11165 6.9508 1.21691 5.91363 1.96398C3.397 3.77658 4.49554 8.14507 5.08489 9.93924C6.4908 14.2193 10.107 17.1034 12.9977 18.8059C15.8873 17.1045 19.5027 14.2215 20.9081 9.94249C21.4974 8.14779 22.5965 3.77821 20.0772 1.96398C19.0406 1.21745 17.7426 1.11165 17.7302 1.11111C16.0955 1.11111 14.5377 1.67697 13.3513 2.70508C13.1493 2.87977 12.854 2.87977 12.652 2.70508C11.4659 1.67697 9.90335 1.11111 8.2517 1.11111Z" fill="white"/>
<path d="M14.0851 15.5564C14.0475 15.5564 14.0097 15.5526 13.9721 15.5439C13.7626 15.4984 13.5991 15.3302 13.555 15.1153L11.5817 5.50324L6.86318 9.85817C6.76372 9.94985 6.63464 10.0009 6.50079 10.0009H0.541733C0.242563 10.0009 1.83245e-08 9.75237 1.83245e-08 9.4453C1.83245e-08 9.13822 0.242563 8.88974 0.541733 8.88974H6.29288L11.5557 4.03243C11.7002 3.89951 11.9028 3.85773 12.0861 3.91687C12.2702 3.97872 12.4083 4.13659 12.4482 4.33082L14.3636 13.6613L17.9806 8.5512C18.0824 8.40688 18.2454 8.32171 18.4189 8.32171C18.4192 8.32171 18.4194 8.32171 18.4197 8.32171L25.4561 8.33419C25.7553 8.33473 26.0005 8.58375 26 8.89083C25.9995 9.19736 25.7601 9.4453 25.4614 9.4453C25.4612 9.4453 25.4609 9.4453 25.4604 9.4453L18.6948 9.43336L14.5236 15.3269C14.4202 15.4729 14.2565 15.5564 14.0851 15.5564Z" fill="white"/>
</svg>
