<svg width="18" height="21" viewBox="0 0 18 21" fill="none" xmlns="http://www.w3.org/2000/svg">
<path d="M17.411 2.84842C17.366 2.53839 17.1043 2.30402 16.7876 2.29079C14.139 2.18022 11.5636 1.42031 9.33993 0.0934442C9.33248 0.0888912 9.32393 0.0873735 9.31626 0.0832542C9.27944 0.0630911 9.24042 0.0466137 9.19965 0.0336052C9.18584 0.0290522 9.17247 0.0244993 9.15845 0.0208135C9.10847 0.00845551 9.05696 0.00021682 9.00326 1.26126e-08C9.00173 1.26126e-08 9.00107 1.26126e-08 8.99954 1.26126e-08C8.94474 1.26126e-08 8.89279 0.00845549 8.84172 0.0210303C8.82835 0.0244993 8.81564 0.0290523 8.80249 0.0331716C8.76019 0.0463969 8.72008 0.0635247 8.68238 0.0843382C8.67514 0.088024 8.66725 0.089108 8.66068 0.0934442C6.43661 1.42031 3.86098 2.18022 1.21236 2.29079C0.896073 2.30423 0.633929 2.53839 0.589215 2.84842C0.452882 3.78915 -0.702657 12.1167 0.651025 14.8138C1.7921 17.0871 7.97923 20.5328 8.68084 20.918C8.68829 20.9222 8.6964 20.9235 8.70386 20.9272C8.73761 20.9443 8.7729 20.9582 8.8095 20.969C8.82287 20.9731 8.83581 20.9781 8.84918 20.9811C8.89783 20.9924 8.94781 21 8.99998 21C9.05192 21 9.10211 20.9924 9.15077 20.9811C9.16414 20.9781 9.17686 20.9731 9.19023 20.969C9.22705 20.9579 9.26234 20.9443 9.29587 20.9272C9.30354 20.9235 9.31166 20.9222 9.31889 20.918C10.0205 20.5328 16.2076 17.0871 17.3487 14.8138C18.7028 12.1167 17.5471 3.78915 17.411 2.84842ZM1.82914 14.2356C0.900457 12.3854 1.45368 6.33469 1.81862 3.55912C4.10734 3.39087 6.33228 2.77059 8.34242 1.75181V19.2252C6.16351 17.9515 2.52242 15.6169 1.82914 14.2356ZM16.171 14.2356C15.4777 15.6169 11.8364 17.9515 9.65753 19.2252V1.75159C11.6672 2.77059 13.8922 3.39109 16.1815 3.55912C16.5465 6.33447 17.0995 12.3854 16.171 14.2356Z" fill="white"/>
<path d="M6.21158 14.6391C4.79675 13.6149 4.38402 13.0603 4.26369 12.8203C4.10676 12.5081 3.85228 11.6457 3.90949 9.38044C3.9187 9.02141 3.63157 8.72287 3.2686 8.71398C2.90475 8.70747 2.60359 8.98889 2.59482 9.34792C2.54485 11.3165 2.70529 12.6417 3.08558 13.3988C3.39813 14.0219 4.16659 14.7709 5.43501 15.6889C5.55206 15.7739 5.68795 15.8144 5.82275 15.8144C6.02528 15.8144 6.22517 15.7221 6.35405 15.548C6.56863 15.2585 6.50463 14.8514 6.21158 14.6391Z" fill="white"/>
</svg>
