<svg width="20" height="21" viewBox="0 0 20 21" fill="none" xmlns="http://www.w3.org/2000/svg">
<path d="M12.3546 -9.84419e-08C11.2638 -9.84419e-08 10.4376 0.388338 10.0874 1.06512C10.057 1.12402 10.0279 1.18395 9.9999 1.24514C9.97208 1.18416 9.94284 1.12402 9.9124 1.06512C9.56218 0.388338 8.73595 -9.84419e-08 7.64539 -9.84419e-08C4.68946 -9.84419e-08 -1.13829e-07 2.81888 -1.13829e-07 10.3834C-1.13829e-07 17.6259 4.33481 21 7.26453 21C8.16355 21 8.91942 20.6733 9.39303 20.0793C9.64344 19.7655 9.84203 19.4248 9.9999 19.0452C10.1578 19.4248 10.3564 19.7655 10.6068 20.0797C11.0802 20.6733 11.8362 21 12.7353 21C12.7353 21 12.7353 21 12.7355 21C14.3341 21 16.1573 19.9846 17.4939 18.3503C18.6373 16.9524 20 14.4351 20 10.3834C20 2.81909 15.3103 -9.84419e-08 12.3546 -9.84419e-08ZM16.5697 17.5451C15.2392 19.1717 13.7169 19.7515 12.7355 19.7515C12.2046 19.7515 11.7804 19.5861 11.5411 19.2862C10.8874 18.4666 10.6598 17.3254 10.6048 14.5895C10.5979 14.2497 10.3293 13.9781 9.9999 13.9781C9.67066 13.9781 9.4021 14.2497 9.39504 14.5895C9.34 17.3254 9.11257 18.4669 8.45893 19.2862C8.2194 19.5861 7.7952 19.7515 7.26433 19.7515C5.15298 19.7515 1.20951 17.0038 1.20951 10.3836C1.20951 10.2298 1.21375 10.0805 1.21798 9.93112C1.37504 10.0743 1.55045 10.2056 1.74904 10.3113C2.36177 10.6381 3.04364 10.6747 3.77653 10.4214C4.41969 10.199 4.99834 10.2273 5.36428 10.4991C5.73122 10.7717 5.80824 11.2318 5.80824 11.57H7.01795C7.01795 10.6795 6.68165 9.93924 6.07095 9.48556C5.37496 8.96881 4.42413 8.88099 3.39204 9.23749C2.97731 9.38108 2.62286 9.37005 2.30834 9.2044C1.81235 8.94238 1.51718 8.36362 1.38875 8.05416C1.68211 6.24608 2.31338 4.84881 3.10151 3.80263C3.19183 4.10835 3.33821 4.42301 3.57208 4.70209C3.87734 5.06629 4.45477 5.5002 5.47194 5.5002C6.63266 5.5002 6.72984 6.45544 6.73206 6.74305L7.94177 6.7547C7.94278 6.64503 7.93149 5.66149 7.24155 4.94246C6.80142 4.48399 6.20603 4.25153 5.47194 4.25153C5.0181 4.25153 4.69671 4.1329 4.48985 3.88858C4.18642 3.53042 4.16162 2.93543 4.18198 2.65177C5.3304 1.67739 6.6131 1.24888 7.64519 1.24888C8.32949 1.24888 8.74099 1.45221 8.84523 1.65345C9.22427 2.38622 9.36298 3.45696 9.39504 5.89707C9.39948 6.23859 9.66884 6.51288 9.9999 6.51288C10.331 6.51288 10.6001 6.23859 10.6048 5.89707C10.6368 3.45716 10.7755 2.38643 11.1548 1.65345C11.2588 1.452 11.6703 1.24888 12.3546 1.24888C13.3798 1.24888 14.6525 1.67135 15.795 2.63221C15.818 2.9065 15.7999 3.52126 15.4886 3.88858C15.2817 4.1327 14.9605 4.25153 14.5065 4.25153C13.7724 4.25153 13.177 4.48399 12.7371 4.94246C12.0469 5.66149 12.0358 6.64503 12.0367 6.7547L13.2464 6.74825C13.2486 6.45544 13.346 5.5002 14.5065 5.5002C15.5237 5.5002 16.1011 5.06629 16.4065 4.70209C16.6457 4.41698 16.7928 4.09461 16.8826 3.78265C17.6727 4.82384 18.3066 6.21653 18.6044 8.01899C18.485 8.31596 18.187 8.92906 17.6747 9.20211C17.3594 9.37026 17.0033 9.38192 16.5866 9.23769C15.5557 8.88099 14.6043 8.96881 13.9081 9.48576C13.2974 9.93924 12.9611 10.6797 12.9611 11.5702H14.1708C14.1708 11.232 14.2478 10.7719 14.6148 10.4993C14.9805 10.2273 15.5591 10.199 16.2023 10.4216C16.935 10.6747 17.6173 10.6379 18.2298 10.3116C18.4366 10.2013 18.6197 10.0639 18.7816 9.91323C18.7859 10.0685 18.7903 10.2237 18.7903 10.3838C18.7903 14.058 17.5826 16.306 16.5697 17.5451Z" fill="white"/>
<path d="M10.6042 8.62207H9.39453V12.3681H10.6042V8.62207Z" fill="white"/>
<path d="M5.90877 14.8997C5.90877 14.3051 5.71219 13.7892 5.3404 13.4071C4.6557 12.7035 3.63229 12.6893 3.51172 12.6885L3.51736 13.9372C3.51797 13.9372 3.51878 13.9372 3.51958 13.9372C3.65447 13.9372 4.19944 13.9965 4.48695 14.292C4.63171 14.4408 4.69905 14.6339 4.69905 14.8997C4.69905 15.7373 4.93999 16.4077 5.41541 16.8913C6.0866 17.5745 6.96182 17.6051 7.11344 17.6051C7.11888 17.6051 7.12332 17.6051 7.12695 17.6051L7.11606 16.3565C6.83259 16.3548 5.90877 16.2443 5.90877 14.8997Z" fill="white"/>
<path d="M14.3684 13.4073C13.9964 13.7893 13.8 14.305 13.8 14.8998C13.8 16.2444 12.8762 16.355 12.5988 16.3566L12.582 17.6053C12.5857 17.6053 12.5899 17.6053 12.5953 17.6053C12.7472 17.6053 13.6224 17.5749 14.2934 16.8915C14.7686 16.4078 15.0097 15.7375 15.0097 14.8998C15.0097 13.9918 15.9969 13.939 16.1948 13.9373L16.1942 13.313L16.1973 12.6886C16.0842 12.6861 15.0533 12.7032 14.3684 13.4073Z" fill="white"/>
</svg>
