<svg width="20" height="24" viewBox="0 0 20 24" fill="none" xmlns="http://www.w3.org/2000/svg">
<path d="M20 8.72754C20 7.57019 19.5309 6.46025 18.6958 5.64189C17.8607 4.82352 16.7282 4.36377 15.5472 4.36377C15.1711 4.36421 14.7968 4.41374 14.434 4.51105C14.4368 4.46199 14.4368 4.41282 14.434 4.36377C14.434 3.20643 13.9649 2.09648 13.1298 1.27812C12.2947 0.459753 11.1622 0 9.98121 0C8.80025 0 7.66767 0.459753 6.8326 1.27812C5.99754 2.09648 5.52841 3.20643 5.52841 4.36377C5.52564 4.41282 5.52564 4.46199 5.52841 4.51105C5.16566 4.41374 4.7913 4.36421 4.41521 4.36377C3.41272 4.37206 2.44241 4.71165 1.66134 5.32757C0.880273 5.94349 0.334145 6.7997 0.111352 7.75761C-0.111442 8.71553 0.00213557 9.7191 0.433703 10.6059C0.86527 11.4927 1.58957 12.2108 2.48938 12.644C2.29089 13.1335 2.1889 13.6555 2.18881 14.1823C2.18881 15.3396 2.65794 16.4495 3.49301 17.2679C4.32807 18.0863 5.46065 18.546 6.64161 18.546C7.61481 18.5466 8.56057 18.23 9.32999 17.646C9.15062 19.6375 8.29406 21.5123 6.89764 22.9698L6.78076 23.0952C6.68346 23.2038 6.63409 23.3458 6.64349 23.49C6.65288 23.6342 6.72026 23.7688 6.83085 23.8644C6.94163 23.9597 7.08648 24.0081 7.23362 23.9989C7.38075 23.9897 7.51815 23.9236 7.61566 23.8153L7.72141 23.7062C9.32687 21.9974 10.2924 19.8048 10.4599 17.4878C11.2526 18.1663 12.2683 18.542 13.3208 18.546C14.5018 18.546 15.6343 18.0863 16.4694 17.2679C17.3045 16.4495 17.7736 15.3396 17.7736 14.1823C17.7735 13.6555 17.6715 13.1335 17.473 12.644C18.2295 12.2927 18.8686 11.7382 19.3159 11.0448C19.7633 10.3515 20.0005 9.54787 20 8.72754ZM16.5491 11.8313C16.4714 11.856 16.4002 11.8971 16.3406 11.9518C16.2809 12.0065 16.2343 12.0733 16.204 12.1476C16.1684 12.2209 16.1499 12.301 16.1499 12.3822C16.1499 12.4633 16.1684 12.5435 16.204 12.6167C16.4908 13.0915 16.6479 13.6307 16.6604 14.1823C16.649 14.8931 16.4018 15.5811 15.956 16.142C15.5102 16.7029 14.8902 17.1063 14.1896 17.2912C13.4891 17.4761 12.7462 17.4324 12.0733 17.1667C11.4003 16.901 10.834 16.4278 10.4599 15.8187C10.4106 15.7373 10.3406 15.6698 10.2566 15.623C10.1727 15.5762 10.0778 15.5515 9.98121 15.5515C9.88463 15.5515 9.78971 15.5762 9.70579 15.623C9.62186 15.6698 9.55181 15.7373 9.50253 15.8187C9.12842 16.4278 8.56208 16.901 7.88915 17.1667C7.21622 17.4324 6.47331 17.4761 5.77279 17.2912C5.07226 17.1063 4.45221 16.7029 4.00643 16.142C3.56065 15.5811 3.31338 14.8931 3.30201 14.1823C3.306 13.6331 3.45356 13.0941 3.73059 12.6167C3.77061 12.5455 3.79388 12.4664 3.7987 12.3853C3.80351 12.3041 3.78975 12.2229 3.75842 12.1476C3.72811 12.0733 3.68148 12.0065 3.62184 11.9518C3.5622 11.8971 3.49101 11.856 3.41333 11.8313C2.96286 11.7012 2.54544 11.4796 2.18832 11.1807C1.8312 10.8819 1.5424 10.5125 1.34079 10.0969C1.13918 9.68126 1.02928 9.22862 1.01827 8.76853C1.00727 8.30844 1.09539 7.85124 1.27691 7.4268C1.45842 7.00235 1.72923 6.62018 2.07167 6.30526C2.41411 5.99033 2.82047 5.74972 3.26422 5.59914C3.70798 5.44855 4.17915 5.39138 4.64698 5.43135C5.11481 5.47131 5.56878 5.60752 5.97926 5.83109C6.0753 5.88063 6.18404 5.90158 6.29208 5.89134C6.40011 5.8811 6.50274 5.84013 6.58732 5.77347C6.67191 5.70681 6.73475 5.61736 6.76813 5.51615C6.80151 5.41493 6.80397 5.30636 6.77519 5.20379C6.69402 4.93058 6.64912 4.64824 6.64161 4.36377C6.64161 3.49576 6.99346 2.66331 7.61975 2.04953C8.24605 1.43576 9.09549 1.09094 9.98121 1.09094C10.8669 1.09094 11.7164 1.43576 12.3427 2.04953C12.969 2.66331 13.3208 3.49576 13.3208 4.36377C13.3152 4.65556 13.2703 4.94536 13.1872 5.22561C13.1584 5.32818 13.1609 5.43675 13.1943 5.53797C13.2277 5.63918 13.2905 5.72863 13.3751 5.79529C13.4597 5.86195 13.5623 5.90292 13.6703 5.91316C13.7784 5.92339 13.8871 5.90245 13.9832 5.85291C14.3936 5.62934 14.8476 5.49313 15.3154 5.45316C15.7833 5.4132 16.2544 5.47037 16.6982 5.62096C17.1419 5.77154 17.5483 6.01215 17.8907 6.32708C18.2332 6.642 18.504 7.02417 18.6855 7.44861C18.867 7.87306 18.9551 8.33026 18.9441 8.79035C18.9331 9.25043 18.8232 9.70308 18.6216 10.1187C18.42 10.5344 18.1312 10.9037 17.7741 11.2025C17.417 11.5014 16.9996 11.7231 16.5491 11.8531V11.8313Z" fill="white"/>
</svg>
