<svg width="24" height="22" viewBox="0 0 24 22" fill="none" xmlns="http://www.w3.org/2000/svg">
<path d="M14.9425 20.1192C17.3832 19.0288 19.2543 17.066 20.2035 14.5852C21.0712 12.3498 21.0984 9.95075 20.339 7.71531L19.6611 10.6595L18.6577 10.4142L19.9323 4.96191L24 9.10565L23.2678 9.8417L21.5051 8.06971C22.1288 10.3324 22.0204 12.7314 21.1526 14.9396C20.095 17.693 18.034 19.8739 15.3493 21.0734C13.9392 21.7004 12.4205 22.0003 10.929 22.0003C8.00028 22.0003 5.09864 20.828 2.98342 18.5926L3.74273 17.8838C6.61726 20.9098 11.1189 21.8095 14.9425 20.1192Z" fill="white"/>
<path d="M11.3602 5.1997e-08C12.0111 0.0272614 12.689 0.109046 13.3398 0.272614L13.15 1.11772C12.5534 0.98141 11.9297 0.899626 11.3331 0.872365L11.3602 5.1997e-08Z" fill="white"/>
<path d="M3.06357 3.35298C3.52458 2.86228 4.03982 2.42609 4.58219 2.04443L5.07031 2.75323C4.58219 3.10763 4.09406 3.51655 3.68729 3.95273L3.06357 3.35298Z" fill="white"/>
<path d="M5.47853 1.4448C5.80395 1.25397 6.15649 1.0904 6.50902 0.926828C6.78021 0.817783 7.02427 0.708737 7.29545 0.626953L7.59375 1.4448C7.34969 1.52658 7.10562 1.63562 6.86156 1.74467C6.53614 1.88098 6.21072 2.04455 5.91242 2.23538L5.47853 1.4448Z" fill="white"/>
<path d="M1.27638 5.83384C1.57468 5.23409 1.95434 4.68887 2.36111 4.1709L3.03906 4.71613C2.65941 5.20683 2.33399 5.7248 2.03569 6.27003L1.27638 5.83384Z" fill="white"/>
<path d="M14.5604 0.626789C15.1299 0.817618 15.6723 1.06297 16.1875 1.36285L15.7807 2.12617C15.2926 1.85355 14.8045 1.63546 14.2892 1.44463C14.235 1.41737 14.1536 1.39011 14.0994 1.39011L14.3706 0.572266C14.4248 0.599527 14.5062 0.599527 14.5604 0.626789Z" fill="white"/>
<path d="M1.51953 14.476L0.705986 14.7759C0.461923 14.1489 0.299213 13.4946 0.190741 12.8403L1.0314 12.6768C1.13988 13.3038 1.30259 13.9035 1.51953 14.476Z" fill="white"/>
<path d="M8.32551 0.299875C8.97635 0.136307 9.62718 0.0272614 10.3051 5.1997e-08L10.3594 0.872365C9.76277 0.899626 9.13906 1.00867 8.54246 1.14498L8.32551 0.299875Z" fill="white"/>
<path d="M2.84766 16.9835L2.1697 17.5015C1.76293 16.9562 1.43751 16.3838 1.13921 15.784L1.92564 15.4023C2.1697 15.9476 2.49512 16.4928 2.84766 16.9835Z" fill="white"/>
<path d="M0.921876 9.89624C0.894758 10.2506 0.867638 10.6323 0.867638 10.9867C0.867638 11.232 0.867638 11.5047 0.894756 11.75L0.0269756 11.8045C-0.000142515 11.5319 -0.000142097 11.2593 -0.000142097 10.9867C-0.000142097 10.605 0.0269752 10.1961 0.0540934 9.81445L0.921876 9.89624Z" fill="white"/>
<path d="M0.245655 8.72373C0.381246 8.06945 0.571073 7.41518 0.815136 6.81543L1.60156 7.14257C1.3575 7.71506 1.19479 8.31481 1.0592 8.91456L0.245655 8.72373Z" fill="white"/>
<path d="M6.72454 4.06179C6.96861 3.92548 7.29403 3.98001 7.42962 4.22536L7.7008 4.6888C7.83639 4.93416 7.78215 5.26129 7.53809 5.3976C7.45674 5.45212 7.37538 5.47938 7.26691 5.47938C7.1042 5.47938 6.91437 5.3976 6.83302 5.23403L6.56184 4.77059C6.39913 4.52523 6.48048 4.1981 6.72454 4.06179Z" fill="white"/>
<path d="M10.7387 2.88965C11.0098 2.88965 11.2539 3.10774 11.2539 3.40761V3.95284C11.2539 4.25272 11.037 4.47081 10.7387 4.47081C10.4675 4.47081 10.2234 4.25272 10.2234 3.95284V3.40761C10.2234 3.135 10.4675 2.88965 10.7387 2.88965Z" fill="white"/>
<path d="M14.807 3.89874C15.0511 4.03504 15.1596 4.36218 14.9969 4.60753L14.7257 5.09824C14.6443 5.26181 14.4545 5.37085 14.2647 5.37085C14.1833 5.37085 14.102 5.34359 14.0206 5.31633C13.7765 5.18002 13.6681 4.85288 13.8308 4.60753L14.102 4.11683C14.2375 3.84421 14.563 3.76243 14.807 3.89874Z" fill="white"/>
<path d="M17.2994 13.9573L17.7875 14.2299C18.0316 14.3663 18.14 14.6934 17.9773 14.9387C17.896 15.1023 17.7061 15.2114 17.5163 15.2114C17.435 15.2114 17.3536 15.1841 17.2722 15.1568L16.7841 14.8842C16.5401 14.7479 16.4316 14.4208 16.5943 14.1754C16.7299 13.9028 17.0282 13.821 17.2994 13.9573Z" fill="white"/>
<path d="M15.0769 17.9655C14.9955 18.02 14.9141 18.0473 14.8057 18.0473C14.643 18.0473 14.4531 17.9655 14.3718 17.8019L14.1006 17.3385C13.965 17.0931 14.0193 16.766 14.2633 16.6297C14.5074 16.4934 14.8328 16.5479 14.9684 16.7932L15.2396 17.2567C15.4023 17.502 15.3209 17.8019 15.0769 17.9655Z" fill="white"/>
<path d="M11.0394 17.5288C11.3106 17.5288 11.5547 17.7469 11.5547 18.0468V18.592C11.5547 18.8919 11.3377 19.11 11.0394 19.11C10.7683 19.11 10.5242 18.8919 10.5242 18.592V18.0468C10.5242 17.7742 10.7411 17.5561 11.0394 17.5288Z" fill="white"/>
<path d="M7.70223 17.9111C7.62088 18.0747 7.43105 18.1838 7.24122 18.1838C7.15987 18.1838 7.07851 18.1565 6.99716 18.1292C6.7531 17.9929 6.64462 17.6658 6.80733 17.4204L7.07851 16.9297C7.21411 16.6844 7.53952 16.5753 7.78359 16.7389C8.02765 16.8752 8.13612 17.2024 7.97341 17.4477L7.70223 17.9111Z" fill="white"/>
<path d="M5.34142 14.3942C5.47701 14.6395 5.42278 14.9667 5.17872 15.103L4.71771 15.3756C4.63635 15.4301 4.555 15.4574 4.44653 15.4574C4.28382 15.4574 4.09399 15.3756 4.01263 15.212C3.87704 14.9667 3.93128 14.6395 4.17534 14.5032L4.63635 14.2306C4.88042 14.067 5.20583 14.1488 5.34142 14.3942Z" fill="white"/>
<path d="M3.36427 11.6678C3.06597 11.6678 2.84902 11.4497 2.84902 11.1498C2.84902 10.8499 3.06597 10.6318 3.36427 10.6318H3.90663C4.17781 10.6318 4.42187 10.8499 4.42187 11.1498C4.42187 11.4497 4.20493 11.6678 3.90663 11.6678H3.36427Z" fill="white"/>
<path d="M5.20812 7.85126C5.12676 8.01483 4.93694 8.12387 4.74711 8.12387C4.66576 8.12387 4.5844 8.09661 4.50305 8.06935L4.01492 7.79674C3.77086 7.66043 3.66238 7.33329 3.82509 7.08794C3.96068 6.84259 4.2861 6.73354 4.53016 6.89711L5.01829 7.16973C5.26236 7.27877 5.34371 7.60591 5.20812 7.85126Z" fill="white"/>
<path d="M7.56917 6.65137L10.7962 10.2771C10.8776 10.2499 10.9589 10.2499 11.0403 10.2499C11.1217 10.2499 11.203 10.2771 11.2844 10.3044L14.2674 7.63278L14.9453 8.3961L11.9623 11.0677C12.0166 11.4221 11.9352 11.7765 11.6369 12.0219C11.4471 12.1854 11.203 12.2945 10.9589 12.2945C10.9318 12.2945 10.9318 12.2945 10.9047 12.2945C10.6335 12.2672 10.3895 12.1582 10.1996 11.9673C10.0098 11.7765 9.92845 11.5039 9.95557 11.2313C9.95557 11.1495 9.98269 11.0677 10.0098 10.9859L6.78275 7.36016L7.56917 6.65137ZM10.9861 11.2585C10.9589 11.2585 10.9589 11.2585 10.9861 11.2585C10.9589 11.2585 10.9589 11.2858 10.9861 11.2585Z" fill="white"/>
</svg>
