<svg width="24" height="24" viewBox="0 0 24 24" fill="none" xmlns="http://www.w3.org/2000/svg">
<mask id="mask0" mask-type="alpha" maskUnits="userSpaceOnUse" x="4" y="4" width="16" height="17">
<path d="M12 4.00098C13.0609 4.00098 14.0783 4.4224 14.8284 5.17255C15.5786 5.92269 16 6.94011 16 8.00098C16 9.06184 15.5786 10.0793 14.8284 10.8294C14.0783 11.5795 13.0609 12.001 12 12.001C10.9391 12.001 9.92172 11.5795 9.17157 10.8294C8.42143 10.0793 8 9.06184 8 8.00098C8 6.94011 8.42143 5.92269 9.17157 5.17255C9.92172 4.4224 10.9391 4.00098 12 4.00098ZM12 14.001C16.42 14.001 20 15.791 20 18.001V20.001H4V18.001C4 15.791 7.58 14.001 12 14.001Z" fill="#9E9E9E"/>
</mask>
<g mask="url(#mask0)">
<rect y="0.000976562" width="24" height="24" fill="#757575"/>
</g>
</svg>
